<?xml version="1.0" encoding="UTF-8"?> <svg xmlns="http://www.w3.org/2000/svg" width="743" height="218" viewBox="0 0 743 218" fill="none"><g clip-path="url(#clip0_67_3)"><path d="M345.45 22.1306C338.18 14.6006 328.6 9.13055 317.05 5.45055C305.5 1.77055 292 0.000552299 276.33 0.000552299C260.41 0.000552299 246.55 1.75055 234.92 5.42055C223.43 8.80055 213.68 13.8206 205.92 20.6606L205.87 20.7106C198.544 27.4226 192.922 35.7834 189.47 45.1006V45.1906V45.2906C186.24 54.8718 184.496 64.8913 184.3 75.0005L184.11 82.1705H244.94L245.84 76.2306C246.98 68.7206 249.6 63.2306 253.38 59.2306C256.74 55.9106 263.02 53.4606 273.97 53.4606C283.19 53.4606 289.59 55.1706 293.84 57.8806L293.99 57.9806L294.15 58.0706C298.26 60.3906 299.66 63.0706 299.66 66.5506C299.66 71.6506 298.12 74.2006 296.04 75.7306C292.94 77.6706 285.72 79.8706 272.98 81.7306C260.007 83.4972 247.927 85.5872 236.74 88.0005C226.121 89.9205 215.919 93.6767 206.59 99.1005C197.642 104.469 190.353 112.208 185.53 121.461C184.77 122.851 184.09 124.291 183.45 125.791C184.497 118.575 185.015 111.292 185 104.001C185 88.3105 182.6 73.9406 177.61 61.0606C172.998 48.7962 165.903 37.6162 156.77 28.2206C147.834 18.9909 136.958 11.8624 124.93 7.35055C112.212 2.37082 98.6574 -0.124218 85 0.000552299H0V212.001H91.18C104.354 212.147 117.408 209.481 129.47 204.181H129.54H129.6C141.027 198.894 151.206 191.25 159.47 181.751C167.935 171.677 174.328 160.031 178.28 147.481C178.33 147.331 178.37 147.181 178.42 147.031C178.087 150.517 177.923 154.164 177.93 157.971C177.93 175.401 183.67 190.141 195.4 201.571L195.46 201.641L195.53 201.701C208 213.001 226.44 218.001 249.56 218.001C263.37 218.001 275.82 215.931 286.77 211.601H286.84H286.92C292.688 209.219 298.159 206.172 303.22 202.521C303.647 204.441 304.143 206.284 304.71 208.051L306.25 212.941H366V83.4006C366.163 71.7978 364.602 60.2351 361.37 49.0906C358.507 38.8684 353.019 29.5736 345.45 22.1306Z" fill="#2249B2"></path><path d="M738.37 49.09C735.514 38.8535 730.025 29.5442 722.45 22.09C715.18 14.56 705.6 9.09 694.05 5.41C682.65 1.75 669 0 653.33 0C637.41 0 623.55 1.75 611.92 5.42C600.43 8.8 590.68 13.82 582.92 20.66H582.87V20.71C575.544 27.422 569.922 35.7828 566.47 45.1V45.19V45.29C563.24 54.8712 561.496 64.8908 561.3 75L561.11 82.17H621.94L622.84 76.23C623.98 68.72 626.6 63.23 630.38 59.23C633.74 55.91 640.02 53.46 650.97 53.46C660.19 53.46 666.59 55.17 670.84 57.88L670.99 57.98L671.15 58.07C675.26 60.39 676.66 63.07 676.66 66.55C676.66 71.65 675.12 74.2 673.04 75.73C669.94 77.67 662.72 79.87 649.98 81.73C637.013 83.4967 624.933 85.5867 613.74 88C603.121 89.9199 592.919 93.6761 583.59 99.1C574.642 104.468 567.353 112.207 562.53 121.46C557.31 131 555 143.31 555 157.84C555 175.27 560.74 190.01 572.47 201.44L572.53 201.51L572.6 201.57C585 213 603.44 218 626.56 218C640.37 218 652.82 215.93 663.77 211.6H663.84H663.92C669.688 209.218 675.159 206.171 680.22 202.52C680.647 204.44 681.143 206.283 681.71 208.05L683.25 212.94H743V83.4C743.163 71.7972 741.602 60.2346 738.37 49.09Z" fill="#2249B2"></path><path d="M552.69 61.0005C548.144 48.7567 541.129 37.5785 532.08 28.1605C523.257 18.9644 512.492 11.8548 500.57 7.35048C488.005 2.37277 474.595 -0.123231 461.08 0.000476893H377V212H467.19C480.232 212.146 493.152 209.479 505.07 204.18H505.14H505.2C516.525 198.877 526.596 191.232 534.75 181.75C543.131 171.652 549.453 160.009 553.36 147.48C557.901 133.439 560.143 118.757 560 104C560 88.2705 557.63 73.9005 552.69 61.0005Z" fill="#2249B2"></path></g><defs><clipPath id="clip0_67_3"><rect width="743" height="218" fill="white"></rect></clipPath></defs></svg> 