<?xml version="1.0" encoding="UTF-8"?> <svg xmlns="http://www.w3.org/2000/svg" width="215" height="138" viewBox="0 0 215 138" fill="none"><path d="M191.929 89.2919H191.949H191.972C193.64 88.6028 195.222 87.7211 196.685 86.6646C196.808 87.2202 196.952 87.7535 197.116 88.2647L197.561 89.6796H214.838V52.198C214.885 48.8408 214.434 45.4952 213.499 42.2706C212.673 39.3087 211.086 36.6151 208.896 34.4583C206.794 32.2795 204.024 30.6968 200.684 29.632C197.388 28.5615 193.455 28.0551 188.91 28.0551C184.307 28.0551 180.299 28.5615 176.936 29.6234C173.614 30.6013 170.795 32.0539 168.551 34.033H168.537C166.422 35.9724 164.798 38.3874 163.8 41.0785V41.1045V41.1335C162.86 43.9174 162.354 46.8295 162.3 49.7675L162.245 51.8421H179.834L180.094 50.1234C180.423 47.9504 181.181 46.3619 182.274 45.2045C183.245 44.2439 185.061 43.535 188.227 43.535C190.893 43.535 192.744 44.0298 193.973 44.8139L194.016 44.8429L194.062 44.8689C195.251 45.5402 195.656 46.3156 195.656 47.3225C195.656 48.7982 195.21 49.536 194.609 49.9787C193.713 50.54 191.625 51.1766 187.941 51.7148C184.19 52.251 180.697 52.8654 177.462 53.5579C174.392 54.1134 171.442 55.2003 168.745 56.7696C166.157 58.3229 164.05 60.562 162.655 63.2394C161.146 65.9708 160.478 69.5326 160.478 73.7368C160.478 78.78 162.138 83.045 165.529 86.3522L165.547 86.3724L165.567 86.3898C167.133 87.8062 168.966 88.8943 170.96 89.5899L169.421 114.954C169.307 116.702 169.454 118.457 169.858 120.162C170.249 121.818 170.994 123.369 172.044 124.708C173.194 126.087 174.628 127.201 176.248 127.974C177.983 128.842 180.062 129.314 182.453 129.459C184.766 129.6 186.819 129.369 188.603 128.721C190.297 128.156 191.841 127.215 193.12 125.969C194.338 124.768 195.285 123.319 195.899 121.722C196.544 120.108 196.924 118.4 197.023 116.664L197.631 106.653L187.704 106.051L187.143 115.31C187.033 117.118 186.585 118.322 185.937 119.071C185.402 119.728 184.564 120.11 183.17 120.026C181.777 119.942 180.935 119.447 180.487 118.759C179.993 117.891 179.735 116.571 179.848 114.708L180.556 103.015L197.807 104.063L198.296 95.9613L181.045 94.9167L181.276 91.0829C185.223 91.1437 188.788 90.5332 191.929 89.2919Z" fill="#FFFEF0"></path><path d="M153.849 36.2195C151.298 33.5566 148.185 31.4974 144.738 30.1925C141.105 28.7522 137.227 28.03 133.319 28.0658H109.008V89.4067H135.086C138.857 89.449 142.593 88.6772 146.039 87.144H146.059H146.077C149.351 85.6094 152.263 83.3974 154.621 80.6541C157.044 77.732 158.872 74.3634 160.002 70.7382C161.315 66.6755 161.963 62.4272 161.922 58.1576C161.922 53.6178 161.237 49.4599 159.808 45.7331C158.495 42.1863 156.467 38.948 153.849 36.2195Z" fill="#FFFEF0"></path><path d="M149.084 105.322C149.349 104.474 149.78 103.687 150.351 103.007C150.792 102.507 151.356 102.131 151.987 101.916C152.662 101.707 153.37 101.625 154.075 101.676C155.243 101.7 156.359 102.167 157.195 102.984L157.212 103.001L157.23 103.016C158.03 103.748 158.508 104.752 158.606 106.126L158.675 107.113L169.177 107.749V106.54C169.179 104.673 168.822 102.823 168.125 101.091C167.444 99.4267 166.413 97.9278 165.103 96.6963C163.781 95.4284 162.219 94.4387 160.508 93.7855C158.649 93.0632 156.686 92.6451 154.694 92.5471C152.522 92.3893 150.339 92.5996 148.237 93.1692C146.308 93.7176 144.533 94.7083 143.053 96.0626C141.493 97.4962 140.276 99.2623 139.49 101.23C138.623 103.363 138.131 105.88 137.958 108.753C137.757 111.358 137.96 113.979 138.559 116.522V116.548C139.122 118.663 140.094 120.646 141.419 122.387C142.683 123.976 144.286 125.261 146.112 126.149H146.126H146.144C148.092 127.012 150.183 127.509 152.311 127.616C154.235 127.75 156.167 127.542 158.019 127.002C159.77 126.501 161.42 125.695 162.891 124.621C165.869 122.399 167.899 119.133 168.573 115.478L168.795 114.231L158.204 113.588L158.039 114.598C157.808 116.045 157.212 116.985 156.304 117.599C155.274 118.285 154.039 118.598 152.806 118.484C151.649 118.414 150.573 117.778 149.584 116.262C148.653 114.835 148.185 112.552 148.387 109.219C148.435 107.894 148.67 106.582 149.084 105.322ZM147.213 110.403C147.213 110.805 147.213 111.192 147.228 111.56C147.213 111.187 147.208 110.799 147.213 110.397V110.403ZM168.009 105.695C168.009 105.562 167.992 105.429 167.98 105.296V105.4C167.995 105.489 167.995 105.591 168.009 105.689V105.695ZM168.041 106.531C168.041 106.317 168.041 106.106 168.021 105.895C168.032 106.1 168.038 106.311 168.041 106.525V106.531ZM167.954 105.053C167.94 104.917 167.925 104.783 167.908 104.647C167.925 104.786 167.942 104.919 167.954 105.055V105.053ZM154.624 93.6756C152.582 93.5261 150.529 93.7217 148.552 94.2542C150.529 93.7203 152.582 93.5246 154.624 93.6756ZM140.525 101.673C139.724 103.664 139.242 106.055 139.08 108.846C139.242 106.053 139.724 103.662 140.525 101.673ZM139.025 109.879C139.025 110.217 139.01 110.553 139.025 110.88C139.005 110.553 139.01 110.217 139.019 109.879H139.025ZM166.517 118.388C166.578 118.25 166.636 118.099 166.693 117.963C166.63 118.108 166.572 118.25 166.511 118.388H166.517ZM165.569 120.124C165.676 119.962 165.774 119.798 165.858 119.63C165.768 119.809 165.681 119.974 165.563 120.136L165.569 120.124ZM165.97 119.459C166.034 119.349 166.095 119.233 166.156 119.12C166.089 119.245 166.028 119.361 165.97 119.471V119.459ZM166.26 118.915C166.315 118.808 166.367 118.698 166.419 118.588C166.361 118.71 166.309 118.82 166.26 118.921V118.915ZM167.194 116.438C167.211 116.375 167.225 116.308 167.243 116.244L167.208 116.386C167.199 116.407 167.193 116.428 167.188 116.45L167.194 116.438ZM166.823 117.596C166.858 117.506 166.89 117.413 166.922 117.324C166.884 117.436 166.852 117.529 166.818 117.619L166.823 117.596ZM148.642 116.866C149.77 118.591 151.136 119.502 152.742 119.601C154.225 119.73 155.707 119.348 156.943 118.519C158.14 117.697 158.874 116.443 159.144 114.757L167.454 115.261C167.419 115.457 167.379 115.651 167.335 115.839C167.379 115.648 167.419 115.454 167.454 115.261L159.144 114.757C158.876 116.437 158.142 117.691 156.943 118.519C155.707 119.348 154.225 119.73 152.742 119.601C151.134 119.502 149.768 118.591 148.642 116.866C147.871 115.684 147.412 114.096 147.266 112.104C147.399 114.102 147.855 115.694 148.636 116.878L148.642 116.866Z" fill="#FFFEF0"></path><path d="M122.544 90.5971C120.214 90.4165 117.872 90.6917 115.647 91.4073C113.643 92.031 111.807 93.1025 110.278 94.5409C108.78 96.0229 107.599 97.795 106.808 99.7491C105.929 101.929 105.424 104.241 105.313 106.589C104.96 112.411 106.016 117.066 108.69 120.362C111.365 123.658 115.54 125.411 120.942 125.738C124.487 125.955 127.656 125.217 130.394 123.487C133.132 121.757 135.133 119.164 136.374 115.808L136.9 114.381L126.022 113.722L125.747 114.54C125.613 114.94 125.4 115.309 125.12 115.625C124.839 115.94 124.498 116.195 124.117 116.375C123.176 116.826 122.131 117.016 121.092 116.925C119.357 116.82 118.056 116.158 117.09 114.957C116.258 113.838 115.767 112.501 115.676 111.109L137.056 112.402L137.125 111.277C137.51 104.94 136.547 99.9082 134.023 96.3667C131.498 92.8251 127.621 90.9067 122.544 90.5971ZM133.103 97.009C130.983 93.9728 127.736 92.2319 123.362 91.7863C127.734 92.2396 130.981 93.9844 133.103 97.0206V97.009ZM133.881 98.2532C133.803 98.1085 133.719 97.9638 133.638 97.8336C133.719 97.9812 133.803 98.1201 133.875 98.2648L133.881 98.2532ZM114.508 110.628C114.508 110.718 114.508 110.811 114.523 110.9C114.525 110.819 114.523 110.733 114.517 110.64L114.508 110.628ZM121.737 99.3614C122.401 99.4013 123.051 99.5662 123.654 99.8475H123.68H123.706C124.294 100.086 124.817 100.461 125.233 100.941L125.247 100.959V100.973C125.717 101.487 126.06 102.103 126.25 102.773V102.805V102.836C126.42 103.293 126.532 103.77 126.583 104.254L116.367 103.635C116.633 102.485 117.237 101.44 118.102 100.637C118.591 100.185 119.168 99.8382 119.797 99.6205C120.426 99.4029 121.094 99.3185 121.757 99.3729L121.737 99.3614ZM115.202 104.017C115.202 103.95 115.228 103.887 115.243 103.823C115.217 103.875 115.202 103.95 115.191 104.017H115.202ZM115.358 103.354C115.378 103.276 115.399 103.198 115.422 103.123C115.387 103.198 115.37 103.276 115.347 103.354H115.358ZM115.587 102.622C115.601 102.582 115.613 102.538 115.63 102.498C115.601 102.538 115.59 102.582 115.575 102.622H115.587ZM127.369 102.475C127.419 102.608 127.462 102.741 127.505 102.88C127.459 102.741 127.416 102.608 127.367 102.475H127.369ZM127.526 102.955C127.56 103.075 127.592 103.196 127.621 103.32C127.59 103.194 127.554 103.073 127.514 102.955H127.526ZM127.638 103.401C127.739 103.877 127.798 104.361 127.815 104.847C127.815 104.682 127.797 104.517 127.783 104.358C127.754 104.036 127.705 103.716 127.635 103.401H127.638ZM106.424 106.676C106.38 107.385 106.36 108.071 106.36 108.739C106.357 108.071 106.377 107.385 106.421 106.676H106.424ZM114.569 111.291C114.569 111.424 114.595 111.56 114.612 111.687C114.592 111.56 114.58 111.424 114.566 111.291H114.569ZM114.682 112.107C114.713 112.286 114.748 112.463 114.789 112.636C114.745 112.463 114.711 112.286 114.679 112.107H114.682ZM114.893 113.047C114.919 113.149 114.953 113.244 114.985 113.337C114.951 113.244 114.916 113.149 114.89 113.047H114.893ZM115.107 113.707C115.144 113.8 115.179 113.892 115.219 113.982C115.176 113.892 115.141 113.8 115.104 113.713L115.107 113.707ZM115.376 114.338C115.416 114.419 115.454 114.503 115.497 114.584C115.451 114.503 115.413 114.419 115.37 114.338H115.376ZM115.705 114.951C115.743 115.018 115.78 115.084 115.821 115.148C115.778 115.084 115.74 115.018 115.702 114.951H115.705ZM132.016 120.753C132.042 120.723 132.069 120.695 132.097 120.669C132.068 120.695 132.04 120.723 132.013 120.753H132.016ZM134.853 116.531L134.824 116.589C134.994 116.216 135.153 115.828 135.301 115.432C135.159 115.813 135.009 116.181 134.85 116.537L134.853 116.531ZM133.265 119.28C133.288 119.245 133.314 119.21 133.34 119.179C133.311 119.21 133.297 119.251 133.262 119.286L133.265 119.28ZM121.011 118.065C122.253 118.17 123.501 117.939 124.623 117.396C123.503 117.94 122.257 118.173 121.017 118.07C118.987 117.945 117.38 117.146 116.197 115.675C117.38 117.15 118.984 117.949 121.008 118.07L121.011 118.065ZM134.023 98.5338C134.092 98.6641 134.159 98.7943 134.225 98.9302C134.164 98.8 134.095 98.6669 134.026 98.5396L134.023 98.5338ZM134.676 99.9748C134.725 100.105 134.777 100.235 134.824 100.368C134.78 100.241 134.743 100.114 134.679 99.9806L134.676 99.9748ZM134.965 100.736C135.009 100.869 135.055 100.999 135.095 101.135C135.032 101.005 134.997 100.875 134.954 100.742L134.965 100.736ZM135.211 101.529C135.249 101.662 135.286 101.798 135.321 101.934C135.275 101.803 135.237 101.667 135.2 101.534L135.211 101.529ZM135.425 102.353C135.457 102.489 135.489 102.625 135.518 102.761C135.477 102.631 135.445 102.495 135.414 102.359L135.425 102.353ZM135.61 103.221C135.636 103.354 135.659 103.49 135.685 103.626C135.648 103.487 135.625 103.351 135.61 103.218V103.221ZM135.763 104.112C135.784 104.245 135.804 104.379 135.821 104.512C135.792 104.376 135.772 104.243 135.752 104.11L135.763 104.112ZM135.891 105.035C135.905 105.163 135.917 105.293 135.931 105.42C135.899 105.29 135.899 105.16 135.879 105.033L135.891 105.035Z" fill="#FFFEF0"></path><path d="M91.8825 123.82C91.7842 125.472 91.3967 126.6 90.8415 127.332V127.347V127.361C90.4512 127.908 89.7341 128.29 88.3086 128.203C86.9612 128.122 86.3077 127.656 85.9781 127.02L85.9636 126.997V126.973C85.501 126.178 85.2523 125.009 85.3535 123.359L85.42 122.231L80.9151 121.959C82.8789 121.275 84.6796 120.192 86.2036 118.776C87.8216 117.291 89.1032 115.477 89.9625 113.455C91.8567 108.903 92.1623 103.845 90.83 99.098C90.2446 96.9755 89.1902 95.0117 87.7448 93.3516C86.3488 91.6911 84.5991 90.3643 82.624 89.4686L82.5574 89.4368C82.6876 89.3876 82.8235 89.3442 82.9536 89.2921H82.9738H82.997C84.6649 88.603 86.2466 87.7213 87.7101 86.6648C87.8334 87.2204 87.977 87.7537 88.1409 88.2649L88.5862 89.6798H105.828V52.1982C105.875 48.841 105.424 45.4954 104.489 42.2708C103.663 39.3089 102.076 36.6153 99.8861 34.4585C97.784 32.2797 95.0139 30.697 91.6743 29.6322C88.3346 28.5675 84.4311 28.0669 79.9002 28.0669C75.2969 28.0669 71.2894 28.5732 67.9266 29.6351C64.6043 30.6131 61.7851 32.0656 59.5413 34.0447H59.5268C57.4121 35.9842 55.7887 38.3991 54.7906 41.0903V41.1163V41.1452C53.8519 43.9255 53.3458 46.8336 53.2899 49.7677L53.235 51.8423H70.8238L71.0841 50.1236C71.4137 47.9506 72.1713 46.3621 73.2642 45.2047C74.2358 44.2441 76.0516 43.5352 79.2178 43.5352C81.8837 43.5352 83.7343 44.03 84.9632 44.8141L85.0065 44.8431L85.0528 44.8691C86.2412 45.5404 86.646 46.3158 86.646 47.3227C86.646 48.7984 86.2007 49.5362 85.5993 49.9789C84.7029 50.5402 82.6153 51.1768 78.9315 51.715C75.1803 52.2512 71.6874 52.8656 68.4528 53.5581C65.3825 54.1136 62.4324 55.2005 59.735 56.7698C57.1478 58.3231 55.0403 60.5622 53.6456 63.2396C53.4258 63.6417 53.2292 64.0584 53.0441 64.4924C53.3482 62.395 53.498 60.2781 53.4923 58.1587C53.4923 53.6189 52.7984 49.461 51.3555 45.7342C50.0219 42.1856 47.9704 38.9508 45.3297 36.2322C42.7447 33.5658 39.6002 31.5072 36.1232 30.2051C32.4467 28.7603 28.5273 28.0345 24.5776 28.0669H0V89.4078H5.9044L3.28472 132.636L13.6536 133.264L14.6829 116.256C16.7908 118.409 19.4539 119.604 22.6345 119.795C24.6633 119.955 26.7019 119.648 28.5938 118.898C30.3944 118.134 31.9945 116.965 33.2693 115.481C34.5914 113.924 35.6059 112.13 36.2591 110.194C37.0331 108.007 37.4869 105.718 37.6065 103.401C37.7931 100.897 37.5823 98.3791 36.982 95.9412C36.4713 93.8536 35.5728 91.8807 34.3334 90.1254C33.9491 89.5994 33.5267 89.1024 33.0698 88.6382C34.5648 88.2773 36.0235 87.7795 37.4273 87.1509H37.4475H37.4649C40.7689 85.6212 43.7123 83.4095 46.1017 80.661C48.5495 77.7463 50.3978 74.3766 51.5406 70.7451C51.555 70.7017 51.5666 70.6583 51.5811 70.6149C51.4847 71.6238 51.4374 72.6789 51.4394 73.7804C51.4394 78.8236 53.0991 83.0886 56.4908 86.3958L56.5081 86.416L56.5284 86.4334C56.6267 86.5231 56.7308 86.607 56.8175 86.6938C56.3983 86.6938 55.9848 86.6938 55.5713 86.7169C54.63 86.7626 53.7005 86.9469 52.8128 87.2638C51.873 87.5769 50.9837 88.0252 50.1729 88.5948C50.0833 88.6613 49.9936 88.7279 49.9069 88.7973L50.0139 87.0612L40.0238 86.4536L37.9998 119.931L48.4959 120.567L49.5484 103.207C49.69 100.863 50.3695 99.3468 51.3989 98.4325C52.4283 97.5181 54.0012 97.0291 56.3578 97.1709C57.0604 97.2101 57.7586 97.3069 58.4454 97.4603L58.8676 97.5586C58.0224 99.7152 57.5341 101.995 57.4218 104.309C57.2545 106.695 57.495 109.093 58.1331 111.398C58.7221 113.516 59.7474 115.487 61.1432 117.185C62.5925 118.857 64.3778 120.205 66.3825 121.14C68.6258 122.172 71.0467 122.761 73.5129 122.876C74.1259 122.914 74.7244 122.923 75.3143 122.911C75.0946 127.049 75.9736 130.524 78.0872 133.212C80.2385 136.05 83.6793 137.505 88.1467 137.777C89.9466 137.902 91.7531 137.658 93.4554 137.06C95.1211 136.529 96.6507 135.64 97.9372 134.456C99.2424 133.283 100.298 131.859 101.04 130.269C101.857 128.545 102.323 126.677 102.413 124.771L104.498 90.3395L93.9499 89.6972L91.8825 123.82ZM15.293 100.961C15.4434 98.4845 16.1605 96.6356 17.3575 95.2989C18.5546 93.9621 19.9975 93.395 21.6167 93.4934C23.3053 93.5975 24.6267 94.3759 25.6503 95.9557C26.6854 97.5152 27.177 99.5551 27.018 102.174C26.83 105.284 26.1216 107.382 25.0633 108.646C24.0571 109.853 22.6085 110.458 20.5237 110.33C18.5373 110.209 17.2245 109.425 16.3947 108.016C15.5214 106.554 15.0935 104.251 15.293 100.958V100.961ZM15.0357 89.8592C15.1427 89.703 15.2554 89.5554 15.3711 89.4078C15.2496 89.5554 15.1369 89.6972 15.0357 89.8592ZM19.3324 117.978C19.1416 117.905 18.9536 117.83 18.7541 117.749C18.945 117.83 19.1329 117.905 19.3237 117.978H19.3324ZM18.6211 117.688C18.4852 117.625 18.3493 117.561 18.2192 117.494C18.3406 117.552 18.4765 117.616 18.6124 117.68L18.6211 117.688ZM18.0139 117.399C17.904 117.338 17.7941 117.277 17.6843 117.211C17.7855 117.254 17.8954 117.315 18.0052 117.376L18.0139 117.399ZM16.9527 116.736C16.8515 116.664 16.7561 116.592 16.6636 116.516C16.7474 116.569 16.8429 116.641 16.9441 116.713L16.9527 116.736ZM16.4583 116.36C16.3455 116.271 16.2356 116.175 16.1258 116.071C16.227 116.152 16.3368 116.247 16.4496 116.337L16.4583 116.36ZM20.5295 118.342C20.3994 118.31 20.2693 118.276 20.142 118.238C20.2577 118.276 20.3878 118.31 20.5295 118.342ZM19.9223 118.174C19.7748 118.131 19.6331 118.079 19.4857 118.03C19.6187 118.079 19.7632 118.131 19.9107 118.174H19.9223ZM14.7205 114.598L14.8853 114.795L14.7812 114.676L14.7205 114.598ZM22.0446 118.611C22.2383 118.634 22.435 118.649 22.6229 118.663C22.435 118.649 22.2383 118.632 22.0446 118.611ZM21.3969 118.522C21.5357 118.545 21.6861 118.562 21.8191 118.582C21.6861 118.562 21.5328 118.545 21.3969 118.522ZM32.0954 89.2198C31.9855 89.1156 31.8756 89.0172 31.7629 88.9159C31.8612 89.0172 31.9711 89.1185 32.0954 89.2198ZM76.4362 123.941C76.4362 123.84 76.4362 123.738 76.4362 123.637C76.4362 123.799 76.4362 123.961 76.4362 124.12V123.941ZM57.2512 87.7904C57.5404 87.7904 57.8295 87.7904 58.1187 87.8222H58.165C57.8295 87.8049 57.5404 87.7991 57.2512 87.7904ZM60.3018 88.8957C61.707 89.5579 63.1823 90.0597 64.6997 90.3916C64.0385 90.823 63.4129 91.3068 62.8289 91.8383C61.6712 92.898 60.6807 94.1272 59.8912 95.484L60.3018 88.8957ZM66.3739 90.7157C65.3705 91.2516 64.4372 91.9095 63.5951 92.6745C64.4318 91.9107 65.3593 91.2528 66.3565 90.7157H66.3739ZM68.1666 104.928C68.3516 101.896 69.0861 99.8676 70.1906 98.6408C71.2576 97.4574 72.8219 96.8498 75.0888 96.9886C77.3557 97.1275 78.8477 97.9174 79.7498 99.2195C80.704 100.574 81.1956 102.674 81.0047 105.707C80.8139 108.739 80.0823 110.808 78.9807 112.046C77.9108 113.241 76.3466 113.849 74.0825 113.71C71.8185 113.571 70.341 112.781 69.4244 111.467C68.4673 110.102 67.9815 107.984 68.1666 104.928ZM82.1758 104.639C82.1758 105.009 82.1584 105.391 82.1353 105.796C82.1584 105.383 82.1729 105.001 82.1758 104.63V104.639ZM76.4622 122.836C76.4478 123.076 76.4362 123.313 76.4304 123.548C76.4304 123.313 76.4449 123.076 76.4622 122.836ZM76.7543 127.645C76.7109 127.445 76.6733 127.245 76.6386 127.043C76.682 127.231 76.7196 127.431 76.7629 127.63L76.7543 127.645ZM76.6126 126.866C76.5894 126.719 76.5692 126.577 76.549 126.421C76.5779 126.557 76.5981 126.704 76.6241 126.852L76.6126 126.866ZM76.5229 126.175C76.5085 126.045 76.494 125.911 76.4825 125.778C76.5027 125.897 76.5172 126.03 76.5316 126.155L76.5229 126.175ZM53.2032 88.2881C53.9911 88.006 54.8164 87.8422 55.6523 87.802C56.0542 87.7817 56.459 87.7759 56.8696 87.7788C56.459 87.7788 56.0542 87.7788 55.6523 87.802C54.8164 87.8422 53.9911 88.006 53.2032 88.2881C52.3624 88.5707 51.5668 88.9731 50.8408 89.4831C50.7483 89.5496 50.6558 89.6219 50.5517 89.6972C50.6442 89.6219 50.7367 89.5496 50.8408 89.4831C51.5668 88.9731 52.3624 88.5707 53.2032 88.2881ZM49.8809 90.3308L49.8028 90.409L49.8259 90.3858C49.8433 90.3569 49.8635 90.3424 49.8809 90.3222V90.3308ZM56.9968 96.0425C56.806 96.0222 56.6151 96.0078 56.4185 95.9962C56.6296 96.0135 56.8204 96.028 57.0113 96.0627L56.9968 96.0425ZM78.0612 131.123C78.1133 131.215 78.1682 131.305 78.2202 131.395C78.1711 131.322 78.1161 131.233 78.0699 131.14L78.0612 131.123ZM76.8034 127.798C76.8323 127.931 76.8641 128.067 76.8959 128.197C76.867 128.084 76.8352 127.948 76.8063 127.815L76.8034 127.798ZM77.1388 129.019C77.1735 129.12 77.2053 129.222 77.2429 129.308C77.2024 129.242 77.1764 129.141 77.1417 129.048L77.1388 129.019ZM77.5552 130.107C77.5957 130.2 77.6391 130.292 77.6824 130.382C77.6419 130.312 77.5986 130.22 77.5581 130.127L77.5552 130.107ZM77.7981 130.622C77.8415 130.715 77.8906 130.804 77.9369 130.891C77.8935 130.825 77.8443 130.735 77.801 130.642L77.7981 130.622ZM78.6655 132.069C78.7725 132.219 78.8824 132.358 78.998 132.514C78.8766 132.384 78.7667 132.231 78.6482 132.083L78.6655 132.069ZM78.3561 131.606C78.4197 131.704 78.4834 131.8 78.5499 131.895C78.4776 131.814 78.414 131.719 78.359 131.62L78.3561 131.606Z" fill="#FFFEF0"></path><path d="M210.889 22.7V13.3752L208.779 0.102661H210.719L211.774 8.61071H211.91L212.897 0.102661H214.837L212.795 13.3752V22.7H210.889Z" fill="#FFFEF0"></path><path d="M203.033 22.7V1.8383H201.298V0.102661H206.709V1.8383H204.939V22.7H203.033Z" fill="#FFFEF0"></path><path d="M197.008 22.7V0.102661H198.914V22.7H197.008Z" fill="#FFFEF0"></path><path d="M191.995 22.7L190.225 4.59491H190.089C190.111 4.86717 190.123 5.19614 190.123 5.58184C190.145 5.94485 190.157 6.43265 190.157 7.04523C190.157 7.65781 190.157 8.44055 190.157 9.39345C190.157 10.3237 190.157 11.4808 190.157 12.8647V22.7H188.625V0.102661H191.348L192.845 18.0376H192.981C192.981 17.6973 192.97 17.3003 192.947 16.8465C192.947 16.37 192.936 15.7575 192.913 15.0088C192.913 14.2601 192.902 13.3298 192.879 12.2181C192.879 11.1064 192.879 9.73377 192.879 8.10022V0.102661H194.479V22.7H191.995Z" fill="#FFFEF0"></path><path d="M184.215 0.102661H186.087V19.9094C186.087 21.8379 185.191 22.8021 183.398 22.8021C182.536 22.8021 181.867 22.5752 181.391 22.1215C180.914 21.645 180.676 20.919 180.676 19.9434V0.102661H182.514V20.0455C182.514 20.7262 182.797 21.0665 183.364 21.0665C183.932 21.0665 184.215 20.7262 184.215 20.0455V0.102661Z" fill="#FFFEF0"></path><path d="M176.467 22.7V12.2521C176.467 12.1387 176.467 11.8891 176.467 11.5034C176.467 11.0951 176.467 10.6299 176.467 10.1081C176.467 9.56361 176.467 8.9964 176.467 8.40651C176.49 7.81662 176.501 7.24942 176.501 6.7049C176.501 6.16039 176.501 5.68394 176.501 5.27555C176.524 4.86717 176.535 4.59491 176.535 4.45878H176.399L174.97 22.7H173.2L171.77 4.45878H171.634C171.634 4.66297 171.634 4.9012 171.634 5.17346C171.657 5.42303 171.668 5.82007 171.668 6.36458C171.691 6.88641 171.702 7.61243 171.702 8.54264C171.702 9.47286 171.702 10.7094 171.702 12.2521V22.7H170.035V0.102661H172.996L174.051 17.0847H174.187L175.242 0.102661H178.169V22.7H176.467Z" fill="#FFFEF0"></path><path d="M165.826 22.7V12.2521C165.826 12.1387 165.826 11.8891 165.826 11.5034C165.826 11.0951 165.826 10.6299 165.826 10.1081C165.826 9.56361 165.826 8.9964 165.826 8.40651C165.848 7.81662 165.86 7.24942 165.86 6.7049C165.86 6.16039 165.86 5.68394 165.86 5.27555C165.882 4.86717 165.894 4.59491 165.894 4.45878H165.758L164.328 22.7H162.558L161.129 4.45878H160.993C160.993 4.66297 160.993 4.9012 160.993 5.17346C161.016 5.42303 161.027 5.82007 161.027 6.36458C161.05 6.88641 161.061 7.61243 161.061 8.54264C161.061 9.47286 161.061 10.7094 161.061 12.2521V22.7H159.394V0.102661H162.354L163.409 17.0847H163.545L164.6 0.102661H167.527V22.7H165.826Z" fill="#FFFEF0"></path><path d="M156.921 19.9429C156.921 21.8487 156.024 22.8016 154.232 22.8016C152.394 22.8016 151.475 21.8373 151.475 19.9088V2.9608C151.475 2.0079 151.714 1.28188 152.19 0.78274C152.667 0.260913 153.336 0 154.198 0C155.06 0 155.729 0.260913 156.206 0.78274C156.682 1.30457 156.921 2.04193 156.921 2.99483V19.9429ZM155.049 2.82467C155.049 2.12134 154.765 1.76968 154.198 1.76968C153.631 1.76968 153.347 2.11 153.347 2.79064V20.045C153.347 20.7256 153.631 21.0659 154.198 21.0659C154.765 21.0659 155.049 20.7256 155.049 20.045V2.82467Z" fill="#FFFEF0"></path><path d="M147.233 13.4767H149.036V19.9429C149.036 21.8487 148.163 22.8016 146.416 22.8016C144.601 22.8016 143.693 21.8373 143.693 19.9088V2.9608C143.693 2.0079 143.909 1.28188 144.34 0.78274C144.794 0.260913 145.497 0 146.45 0C147.267 0 147.902 0.226882 148.356 0.680645C148.809 1.13441 149.036 1.9058 149.036 2.99483V8.20176H147.233V2.82467C147.233 2.12134 146.96 1.76968 146.416 1.76968C145.849 1.76968 145.565 2.11 145.565 2.79064V20.0109C145.565 20.7143 145.837 21.0659 146.382 21.0659C146.949 21.0659 147.233 20.7256 147.233 20.045V13.4767Z" fill="#FFFEF0"></path><path d="M131.982 22.7V0.102661H134.806C136.553 0.102661 137.427 0.987498 137.427 2.75717V19.9094C137.427 21.7698 136.553 22.7 134.806 22.7H131.982ZM134.704 20.9984C135.249 20.9984 135.521 20.6014 135.521 19.8073V2.8933C135.521 2.48491 135.442 2.21266 135.283 2.07653C135.124 1.91771 134.886 1.8383 134.568 1.8383H133.853V20.9984H134.704Z" fill="#FFFEF0"></path><path d="M126.968 22.7L125.198 4.59491H125.062C125.085 4.86717 125.096 5.19614 125.096 5.58184C125.119 5.94485 125.13 6.43265 125.13 7.04523C125.13 7.65781 125.13 8.44055 125.13 9.39345C125.13 10.3237 125.13 11.4808 125.13 12.8647V22.7H123.599V0.102661H126.321L127.819 18.0376H127.955C127.955 17.6973 127.943 17.3003 127.921 16.8465C127.921 16.37 127.909 15.7575 127.887 15.0088C127.887 14.2601 127.875 13.3298 127.853 12.2181C127.853 11.1064 127.853 9.73377 127.853 8.10022V0.102661H129.452V22.7H126.968Z" fill="#FFFEF0"></path><path d="M119.463 22.7L119.123 16.8805H117.455L117.149 22.7H115.311L116.808 0.102661H119.803L121.335 22.7H119.463ZM117.557 15.247H119.02L118.374 3.36975H118.238L117.557 15.247Z" fill="#FFFEF0"></path><path d="M106.842 22.7L105.072 4.59491H104.936C104.959 4.86717 104.97 5.19614 104.97 5.58184C104.993 5.94485 105.004 6.43265 105.004 7.04523C105.004 7.65781 105.004 8.44055 105.004 9.39345C105.004 10.3237 105.004 11.4808 105.004 12.8647V22.7H103.473V0.102661H106.195L107.693 18.0376H107.829C107.829 17.6973 107.817 17.3003 107.795 16.8465C107.795 16.37 107.783 15.7575 107.761 15.0088C107.761 14.2601 107.749 13.3298 107.727 12.2181C107.727 11.1064 107.727 9.73377 107.727 8.10022V0.102661H109.326V22.7H106.842Z" fill="#FFFEF0"></path><path d="M100.999 19.9429C100.999 21.8487 100.103 22.8016 98.3108 22.8016C96.4731 22.8016 95.5542 21.8373 95.5542 19.9088V2.9608C95.5542 2.0079 95.7924 1.28188 96.2689 0.78274C96.7453 0.260913 97.4146 0 98.2768 0C99.1389 0 99.8082 0.260913 100.285 0.78274C100.761 1.30457 100.999 2.04193 100.999 2.99483V19.9429ZM99.1276 2.82467C99.1276 2.12134 98.844 1.76968 98.2768 1.76968C97.7096 1.76968 97.426 2.11 97.426 2.79064V20.045C97.426 20.7256 97.7096 21.0659 98.2768 21.0659C98.844 21.0659 99.1276 20.7256 99.1276 20.045V2.82467Z" fill="#FFFEF0"></path><path d="M91.196 22.7V0.102661H93.1018V22.7H91.196Z" fill="#FFFEF0"></path><path d="M85.1449 22.7V1.8383H83.4093V0.102661H88.8204V1.8383H87.0507V22.7H85.1449Z" fill="#FFFEF0"></path><path d="M80.4395 22.7L80.0992 16.8805H78.4316L78.1253 22.7H76.2876L77.785 0.102661H80.7798L82.3113 22.7H80.4395ZM78.5337 15.247H79.9971L79.3505 3.36975H79.2144L78.5337 15.247Z" fill="#FFFEF0"></path><path d="M72.4486 13.4767H74.2523V19.9429C74.2523 21.8487 73.3788 22.8016 71.6318 22.8016C69.8168 22.8016 68.9092 21.8373 68.9092 19.9088V2.9608C68.9092 2.0079 69.1248 1.28188 69.5559 0.78274C70.0096 0.260913 70.7129 0 71.6658 0C72.4826 0 73.1179 0.226882 73.5716 0.680645C74.0254 1.13441 74.2523 1.9058 74.2523 2.99483V8.20176H72.4486V2.82467C72.4486 2.12134 72.1763 1.76968 71.6318 1.76968C71.0646 1.76968 70.781 2.11 70.781 2.79064V20.0109C70.781 20.7143 71.0533 21.0659 71.5978 21.0659C72.165 21.0659 72.4486 20.7256 72.4486 20.045V13.4767Z" fill="#FFFEF0"></path><path d="M64.4991 0.102661H66.3709V19.9094C66.3709 21.8379 65.4747 22.8021 63.6824 22.8021C62.8202 22.8021 62.1509 22.5752 61.6745 22.1215C61.198 21.645 60.9598 20.919 60.9598 19.9434V0.102661H62.7975V20.0455C62.7975 20.7262 63.0811 21.0665 63.6483 21.0665C64.2155 21.0665 64.4991 20.7262 64.4991 20.0455V0.102661Z" fill="#FFFEF0"></path><path d="M52.9755 22.7V0.102661H55.8002C57.5472 0.102661 58.4207 0.987498 58.4207 2.75717V19.9094C58.4207 21.7698 57.5472 22.7 55.8002 22.7H52.9755ZM55.6981 20.9984C56.2426 20.9984 56.5149 20.6014 56.5149 19.8073V2.8933C56.5149 2.48491 56.4354 2.21266 56.2766 2.07653C56.1178 1.91771 55.8796 1.8383 55.562 1.8383H54.8473V20.9984H55.6981Z" fill="#FFFEF0"></path><path d="M46.3547 22.7V0.102661H50.5067V1.8383H48.2265V10.006H50.2684V11.7076H48.2265V20.9984H50.6428V22.7H46.3547Z" fill="#FFFEF0"></path><path d="M36.0063 22.7V0.102661H40.1583V1.8383H37.8781V10.006H39.92V11.7076H37.8781V20.9984H40.2944V22.7H36.0063Z" fill="#FFFEF0"></path><path d="M30.9939 22.7L29.2242 4.59491H29.0881C29.1108 4.86717 29.1221 5.19614 29.1221 5.58184C29.1448 5.94485 29.1562 6.43265 29.1562 7.04523C29.1562 7.65781 29.1562 8.44055 29.1562 9.39345C29.1562 10.3237 29.1562 11.4808 29.1562 12.8647V22.7H27.6247V0.102661H30.3473L31.8447 18.0376H31.9808C31.9808 17.6973 31.9695 17.3003 31.9468 16.8465C31.9468 16.37 31.9355 15.7575 31.9128 15.0088C31.9128 14.2601 31.9014 13.3298 31.8787 12.2181C31.8787 11.1064 31.8787 9.73377 31.8787 8.10022V0.102661H33.4783V22.7H30.9939Z" fill="#FFFEF0"></path><path d="M23.1975 22.7V0.102661H25.1033V22.7H23.1975Z" fill="#FFFEF0"></path><path d="M16.4108 22.7V0.102661H18.3166V20.9644H20.801V22.7H16.4108Z" fill="#FFFEF0"></path><path d="M11.4002 22.7L9.63049 4.59491H9.49436C9.51705 4.86717 9.52839 5.19614 9.52839 5.58184C9.55108 5.94485 9.56242 6.43265 9.56242 7.04523C9.56242 7.65781 9.56242 8.44055 9.56242 9.39345C9.56242 10.3237 9.56242 11.4808 9.56242 12.8647V22.7H8.03098V0.102661H10.7535L12.251 18.0376H12.3871C12.3871 17.6973 12.3757 17.3003 12.3531 16.8465C12.3531 16.37 12.3417 15.7575 12.319 15.0088C12.319 14.2601 12.3077 13.3298 12.285 12.2181C12.285 11.1064 12.285 9.73377 12.285 8.10022V0.102661H13.8845V22.7H11.4002Z" fill="#FFFEF0"></path><path d="M5.55623 19.9429C5.55623 21.8487 4.66005 22.8016 2.86769 22.8016C1.02995 22.8016 0.111084 21.8373 0.111084 19.9088V2.9608C0.111084 2.0079 0.349309 1.28188 0.825759 0.78274C1.30221 0.260913 1.97151 0 2.83366 0C3.69581 0 4.36511 0.260913 4.84156 0.78274C5.31801 1.30457 5.55623 2.04193 5.55623 2.99483V19.9429ZM3.68446 2.82467C3.68446 2.12134 3.40086 1.76968 2.83366 1.76968C2.26646 1.76968 1.98285 2.11 1.98285 2.79064V20.045C1.98285 20.7256 2.26646 21.0659 2.83366 21.0659C3.40086 21.0659 3.68446 20.7256 3.68446 20.045V2.82467Z" fill="#FFFEF0"></path></svg> 